<svg width="22" height="28" viewBox="0 0 22 28" fill="none" xmlns="http://www.w3.org/2000/svg">
<path d="M5.67123 0.149038C6.4372 -0.0819042 7.25916 -0.0435369 8.00028 0.257753C8.7414 0.559043 9.35698 1.10508 9.74453 1.80496L9.87581 2.06578L11.0329 4.64069C11.3845 5.42224 11.4987 6.28994 11.3611 7.13585C11.2236 7.98177 10.8404 8.76858 10.2592 9.39842L10.0281 9.62948L8.20063 11.3327C7.87155 11.6442 8.11836 12.8503 9.31042 14.9123C10.3799 16.7678 11.2534 17.6343 11.6805 17.6816H11.7558L11.8486 17.664L15.437 16.5665C15.9193 16.4186 16.4339 16.4128 16.9194 16.5497C17.4049 16.6866 17.8407 16.9604 18.1747 17.3385L18.3357 17.5398L20.7094 20.8306C21.1751 21.4754 21.4074 22.2597 21.3679 23.0541C21.3285 23.8486 21.0197 24.606 20.4923 25.2015L20.2787 25.422L19.3282 26.3218C18.4763 27.1286 17.4106 27.6738 16.2578 27.8926C15.105 28.1113 13.9136 27.9945 12.8253 27.5558C9.4382 26.1905 6.36091 23.0712 3.56544 18.2294C0.764719 13.3754 -0.399331 9.14461 0.120553 5.52117C0.278025 4.42566 0.729319 3.39326 1.42649 2.53367C2.12366 1.67407 3.04066 1.01939 4.08007 0.639164L4.41791 0.527136L5.67123 0.149038Z" fill="#FE4A51"/>
</svg>
