<svg width="32" height="32" viewBox="0 0 32 32" fill="none" xmlns="http://www.w3.org/2000/svg">
<path d="M15 0C12.0837 0.00344047 9.28779 1.16347 7.22564 3.22563C5.16348 5.28778 4.00345 8.08367 4.00001 11C3.99652 13.3832 4.77499 15.7018 6.21601 17.6C6.21601 17.6 6.51601 17.995 6.56501 18.052L15 28L23.439 18.047C23.483 17.994 23.784 17.6 23.784 17.6L23.785 17.597C25.2253 15.6996 26.0034 13.3821 26 11C25.9966 8.08367 24.8365 5.28778 22.7744 3.22563C20.7122 1.16347 17.9163 0.00344047 15 0ZM15 15C14.2089 15 13.4355 14.7654 12.7777 14.3259C12.1199 13.8864 11.6072 13.2616 11.3045 12.5307C11.0017 11.7998 10.9225 10.9956 11.0769 10.2196C11.2312 9.44372 11.6122 8.73098 12.1716 8.17157C12.731 7.61216 13.4437 7.2312 14.2197 7.07686C14.9956 6.92252 15.7998 7.00173 16.5307 7.30448C17.2616 7.60723 17.8864 8.11992 18.3259 8.77772C18.7654 9.43552 19 10.2089 19 11C18.9987 12.0605 18.5768 13.0771 17.827 13.827C17.0771 14.5768 16.0605 14.9987 15 15Z" fill="#FE4A51"/>
</svg>
