<svg width="31" height="31" viewBox="0 0 31 31" fill="none" xmlns="http://www.w3.org/2000/svg">
<circle cx="15.5" cy="15.5" r="15.5" fill="#CC2320"/>
<path fill-rule="evenodd" clip-rule="evenodd" d="M11.9957 7.051C12.9021 7.00927 13.1911 7 15.5 7C17.8089 7 18.0979 7.01005 19.0035 7.051C19.9092 7.09195 20.5274 7.23645 21.0683 7.44586C21.6347 7.65991 22.1485 7.9945 22.5735 8.42723C23.0063 8.85145 23.3401 9.36455 23.5534 9.93173C23.7635 10.4726 23.9073 11.0908 23.949 11.9949C23.9907 12.9029 24 13.1919 24 15.5C24 17.8089 23.99 18.0979 23.949 19.0043C23.908 19.9084 23.7635 20.5266 23.5534 21.0675C23.3401 21.6348 23.0057 22.1487 22.5735 22.5735C22.1485 23.0063 21.6347 23.3401 21.0683 23.5534C20.5274 23.7635 19.9092 23.9073 19.0051 23.949C18.0979 23.9907 17.8089 24 15.5 24C13.1911 24 12.9021 23.99 11.9957 23.949C11.0916 23.908 10.4734 23.7635 9.9325 23.5534C9.36526 23.3401 8.85132 23.0057 8.42645 22.5735C7.99402 22.1491 7.65938 21.6354 7.44586 21.0683C7.23645 20.5274 7.09273 19.9092 7.051 19.0051C7.00927 18.0971 7 17.8081 7 15.5C7 13.1911 7.01005 12.9021 7.051 11.9965C7.09195 11.0908 7.23645 10.4726 7.44586 9.93173C7.65969 9.36461 7.99459 8.85092 8.42723 8.42645C8.85149 7.99411 9.36491 7.65948 9.93173 7.44586C10.4726 7.23645 11.0908 7.09273 11.9949 7.051H11.9957ZM18.9348 8.581C18.0384 8.54005 17.7695 8.53155 15.5 8.53155C13.2305 8.53155 12.9616 8.54005 12.0652 8.581C11.2361 8.61886 10.7864 8.75718 10.4865 8.87386C10.0901 9.02841 9.80655 9.21155 9.50905 9.50905C9.22703 9.7834 9.01 10.1174 8.87386 10.4865C8.75718 10.7864 8.61886 11.2361 8.581 12.0652C8.54005 12.9616 8.53155 13.2305 8.53155 15.5C8.53155 17.7695 8.54005 18.0384 8.581 18.9348C8.61886 19.7639 8.75718 20.2136 8.87386 20.5135C9.00986 20.882 9.227 21.2166 9.50905 21.491C9.78336 21.773 10.118 21.9901 10.4865 22.1261C10.7864 22.2428 11.2361 22.3811 12.0652 22.419C12.9616 22.46 13.2297 22.4685 15.5 22.4685C17.7703 22.4685 18.0384 22.46 18.9348 22.419C19.7639 22.3811 20.2136 22.2428 20.5135 22.1261C20.9099 21.9716 21.1935 21.7885 21.491 21.491C21.773 21.2166 21.9901 20.882 22.1261 20.5135C22.2428 20.2136 22.3811 19.7639 22.419 18.9348C22.46 18.0384 22.4685 17.7695 22.4685 15.5C22.4685 13.2305 22.46 12.9616 22.419 12.0652C22.3811 11.2361 22.2428 10.7864 22.1261 10.4865C21.9716 10.0901 21.7885 9.80655 21.491 9.50905C21.2166 9.22706 20.8826 9.01003 20.5135 8.87386C20.2136 8.75718 19.7639 8.61886 18.9348 8.581ZM14.4143 18.1203C15.0206 18.3727 15.6958 18.4068 16.3244 18.2167C16.9531 18.0266 17.4963 17.6242 17.8612 17.0781C18.226 16.532 18.39 15.8762 18.3251 15.2227C18.2602 14.5691 17.9704 13.9584 17.5052 13.4948C17.2087 13.1984 16.8501 12.9715 16.4553 12.8303C16.0606 12.6892 15.6394 12.6373 15.2222 12.6785C14.805 12.7196 14.4021 12.8528 14.0425 13.0683C13.6829 13.2839 13.3756 13.5765 13.1426 13.9251C12.9097 14.2736 12.757 14.6695 12.6954 15.0842C12.6338 15.4989 12.665 15.9221 12.7866 16.3234C12.9082 16.7246 13.1173 17.0938 13.3987 17.4046C13.6802 17.7153 14.027 17.9597 14.4143 18.1203ZM12.4106 12.4106C12.8163 12.0049 13.298 11.6831 13.828 11.4636C14.3581 11.244 14.9263 11.131 15.5 11.131C16.0737 11.131 16.6419 11.244 17.172 11.4636C17.702 11.6831 18.1837 12.0049 18.5894 12.4106C18.9951 12.8163 19.3169 13.298 19.5364 13.828C19.756 14.3581 19.869 14.9263 19.869 15.5C19.869 16.0737 19.756 16.6419 19.5364 17.172C19.3169 17.702 18.9951 18.1837 18.5894 18.5894C17.77 19.4087 16.6587 19.869 15.5 19.869C14.3413 19.869 13.23 19.4087 12.4106 18.5894C11.5913 17.77 11.131 16.6587 11.131 15.5C11.131 14.3413 11.5913 13.23 12.4106 12.4106ZM20.838 11.7816C20.9385 11.6868 21.019 11.5728 21.0747 11.4463C21.1304 11.3198 21.1601 11.1834 21.1621 11.0452C21.1641 10.907 21.1384 10.7698 21.0864 10.6417C21.0345 10.5136 20.9573 10.3973 20.8596 10.2996C20.7619 10.2018 20.6455 10.1247 20.5175 10.0728C20.3894 10.0208 20.2522 9.99507 20.114 9.99709C19.9758 9.9991 19.8394 10.0288 19.7129 10.0845C19.5864 10.1402 19.4724 10.2206 19.3775 10.3212C19.1931 10.5167 19.0921 10.7764 19.096 11.0452C19.1 11.3139 19.2085 11.5706 19.3985 11.7607C19.5886 11.9507 19.8452 12.0592 20.114 12.0631C20.3828 12.0671 20.6425 11.9661 20.838 11.7816Z" fill="white"/>
</svg>
