<svg width="48" height="48" viewBox="0 0 48 48" fill="none" xmlns="http://www.w3.org/2000/svg">
<path d="M24 48C37.2548 48 48 37.2548 48 24C48 10.7452 37.2548 0 24 0C10.7452 0 0 10.7452 0 24C0 37.2548 10.7452 48 24 48Z" fill="#FE4A51" fill-opacity="0.14"/>
<path fill-rule="evenodd" clip-rule="evenodd" d="M30 12C31.104 12 32 12.895 32 14V34C32 35.104 31.104 36 30 36H18C16.895 36 16 35.104 16 34V14C16 12.896 16.895 12 18 12H30ZM25.5 14H22.499C22.224 14 22 14.224 22 14.5C22 14.776 22.224 15 22.499 15H25.5C25.776 15 26 14.776 26 14.5C26 14.224 25.776 14 25.5 14ZM24 34C23.447 34 23 33.552 23 33C23 32.448 23.447 32 24 32C24.552 32 24.999 32.448 24.999 33C24.999 33.552 24.552 34 24 34ZM18 31H30V16.976H18V31Z" fill="#FE4A51"/>
</svg>
