<svg width="31" height="31" viewBox="0 0 31 31" fill="none" xmlns="http://www.w3.org/2000/svg">
<circle cx="15.5" cy="15.5" r="15.5" fill="#55AFED"/>
<path d="M25.6817 9.89789C24.958 10.2186 24.1804 10.4353 23.363 10.5333C24.2064 10.0286 24.8374 9.23432 25.1383 8.29863C24.3459 8.7693 23.4786 9.1006 22.5742 9.27812C21.9661 8.62877 21.1605 8.19836 20.2827 8.05374C19.4048 7.90911 18.5038 8.05834 17.7195 8.47828C16.9351 8.89821 16.3114 9.56535 15.945 10.3761C15.5787 11.1869 15.4903 12.0959 15.6935 12.9621C14.0879 12.8814 12.5172 12.4641 11.0833 11.7372C9.64945 11.0102 8.38445 9.98991 7.37042 8.74244C7.0237 9.34053 6.82433 10.034 6.82433 10.7725C6.82395 11.4373 6.98767 12.092 7.30097 12.6784C7.61428 13.2648 8.06748 13.7648 8.62036 14.134C7.97916 14.1136 7.35211 13.9403 6.7914 13.6286V13.6806C6.79133 14.6131 7.11388 15.5169 7.7043 16.2386C8.29473 16.9603 9.11667 17.4555 10.0307 17.6402C9.43584 17.8012 8.81222 17.8249 8.20689 17.7096C8.46477 18.5119 8.96708 19.2135 9.64351 19.7162C10.3199 20.2188 11.1366 20.4974 11.9792 20.5128C10.5489 21.6357 8.78236 22.2448 6.96389 22.2421C6.64177 22.2422 6.31992 22.2234 6 22.1858C7.84585 23.3726 9.99455 24.0024 12.189 24C19.6176 24 23.6786 17.8474 23.6786 12.5113C23.6786 12.338 23.6742 12.1629 23.6664 11.9895C24.4563 11.4183 25.1382 10.7109 25.68 9.90049L25.6817 9.89789Z" fill="white"/>
</svg>
